<?xml version="1.0" encoding="iso-8859-1"?>
<!-- Generator: Adobe Illustrator 19.0.0, SVG Export Plug-In . SVG Version: 6.00 Build 0)  -->
<svg version="1.1" id="Capa_1" xmlns="http://www.w3.org/2000/svg" xmlns:xlink="http://www.w3.org/1999/xlink" x="0px" y="0px"
	 viewBox="0 0 487.7 487.7" style="enable-background:new 0 0 487.7 487.7;" xml:space="preserve">
<g>
	<path style="fill:#FDC75B;" d="M378.5,176.75c56.6,11.1,99.4,61,99.4,120.9c0,68-55.2,123.2-123.2,123.2
		c-46.6,0-87.1-25.8-108.1-64c-5.9-10.7-10.2-22.3-12.7-34.7c-1.6-7.9-2.4-16.2-2.4-24.6c0-26.3,8.3-50.8,22.4-70.8
		c20.3-28.9,52.7-48.7,89.9-51.9c3.6-0.3,7.3-0.5,11-0.5C362.8,174.45,370.8,175.25,378.5,176.75z"/>
	<path style="fill:#FDC75B;" d="M378.5,66.25v110.6c-7.7-1.5-15.7-2.3-23.8-2.3c-3.7,0-7.4,0.2-11,0.5v-73.9H45v168.4v52.8h188.9
		c2.5,12.3,6.8,24,12.7,34.7l-0.3,0.2H10.1v-291H378.5z"/>
	<path style="fill:#FDC75B;" d="M343.6,101.05v73.9c-37.1,3.3-69.5,23.1-89.9,51.9l-41.7,35.2c-6.4,5.4-15.6,5.5-22.1,0.3
		l-60.4-48.3c-6.6-5.3-16.1-5.1-22.4,0.6L45,269.55v-168.5H343.6z M224.6,177.75c0-15.7-12.7-28.4-28.4-28.4s-28.5,12.7-28.5,28.4
		s12.7,28.4,28.5,28.4S224.6,193.45,224.6,177.75z"/>
</g>
<g>
	<path style="fill:#ED664C;" d="M212.1,262.15l41.7-35.2c-14.1,20-22.4,44.4-22.4,70.8c0,8.4,0.8,16.6,2.4,24.6H45v-52.8l62.1-54.8
		c6.3-5.6,15.8-5.8,22.4-0.6l60.4,48.3C196.4,267.65,205.7,267.55,212.1,262.15z"/>
	<path style="fill:#ED664C;" d="M196.2,149.25c15.7,0,28.4,12.7,28.4,28.4s-12.7,28.4-28.4,28.4s-28.5-12.7-28.5-28.4
		S180.5,149.25,196.2,149.25z"/>
</g>
<path d="M196.2,139.25c-21.2,0-38.4,17.2-38.4,38.5c0,21.2,17.2,38.4,38.4,38.4s38.4-17.2,38.4-38.4
	C234.6,156.55,217.4,139.25,196.2,139.25z M196.2,196.15c-10.2,0-18.4-8.3-18.4-18.4c0-10.2,8.3-18.5,18.4-18.5
	c10.2,0,18.4,8.3,18.4,18.5C214.6,187.85,206.4,196.15,196.2,196.15z"/>
<path d="M388,168.85V66.25c0-5.5-4-9.7-9.5-9.7H10.1c-5.5,0-10.1,4.1-10.1,9.7v290.9c0,5.5,4.6,10.4,10.1,10.4H241
	c24.1,39,67.1,63.6,113.7,63.6c73.5,0,133-59.9,133-133.3C487.6,237.05,447,184.05,388,168.85z M20,76.55h348v88.6
	c-4-0.5-8.8-0.7-13.4-0.7c-0.3,0-0.6,0-0.6,0v-63.4c0-5.5-4.8-9.5-10.4-9.5H45c-5.5,0-10,4-10,9.5v221.2c0,5.5,4.5,10.3,10,10.3h181
	c1.4,5,3,10,4.9,15H20V76.55z M222.2,312.55H55v-38.5l58.7-51.8c2.7-2.4,6.7-2.5,9.5-0.2l60.4,48.3c10.2,8.2,24.9,7.9,34.8-0.5
	l7.3-6.2c-2.9,11-4.4,22.6-4.4,34.2C221.4,302.75,221.7,307.55,222.2,312.55z M246.6,220.05l-40.9,34.5c-2.7,2.3-6.7,2.3-9.5,0.1
	l-60.5-48.3c-10.4-8.3-25.3-8-35.3,0.9L55,247.35v-135.8h279v54.6C299,171.65,267.5,190.95,246.6,220.05z M354.6,410.85
	c-41.3,0-79.4-22.5-99.3-58.8c-5.5-10-9.4-20.7-11.7-31.8l0,0c-1.5-7.4-2.3-15-2.3-22.6c0-23.4,7.1-45.9,20.5-65
	c19.3-27.4,49.4-44.8,82.6-47.7c3.3-0.3,6.7-0.4,10.1-0.4c7.4,0,14.8,0.7,21.9,2.1c52.9,10.4,91.3,57.1,91.3,111.1
	C467.9,360.15,417.1,410.85,354.6,410.85z"/>
<path d="M389.6,287.55H365v-24.3c0-5.5-4.5-10-10-10s-10,4.5-10,10v24.3h-23.6c-5.5,0-10,4.5-10,10s4.5,10,10,10H345v24.3
	c0,5.5,4.5,10,10,10s10-4.5,10-10v-24.3h24.6c5.5,0,10-4.5,10-10S395.1,287.55,389.6,287.55z"/>
<g>
</g>
<g>
</g>
<g>
</g>
<g>
</g>
<g>
</g>
<g>
</g>
<g>
</g>
<g>
</g>
<g>
</g>
<g>
</g>
<g>
</g>
<g>
</g>
<g>
</g>
<g>
</g>
<g>
</g>
</svg>
